Coordinates
version=1
nRows=14
nColumns=24
inDegrees=yes

Units are S.I. units (second, meters, Newtons, ...)
Angles are in degrees.

endheader
time	pelvis_tilt	pelvis_list	pelvis_rotation	pelvis_tx	pelvis_ty	pelvis_tz	hip_flexion_r	hip_adduction_r	hip_rotation_r	knee_angle_r	ankle_angle_r	subtalar_angle_r	mtp_angle_r	hip_flexion_l	hip_adduction_l	hip_rotation_l	knee_angle_l	ankle_angle_l	subtalar_angle_l	mtp_angle_l	lumbar_extension	lumbar_bending	lumbar_rotation
      0.48800000	     -2.44976245	      0.98136346	      5.37359121	     -0.80486246	      1.01560234	      0.32201349	     21.77213904	     -0.09317993	     -8.13012316	      3.74945756	     -0.46129038	     -2.80216915	      6.78482720	    -10.35380353	      4.72591071	      8.35393859	     -9.85951043	     12.75398736	     -7.83491181	     -4.52984722	     -5.44204343	     -4.39800895	     -4.13849419
      0.49216667	     -2.47986577	      0.90998159	      5.41810770	     -0.79906375	      1.01493173	      0.32214220	     21.86921105	      0.03563406	     -7.95242522	      3.37633716	     -0.53567198	     -2.95940172	      6.81939622	    -10.32620470	      4.64171528	      8.30674238	    -10.55564490	     12.92674267	     -7.67416332	     -4.51395489	     -5.35719801	     -4.28348792	     -4.09504245
      0.49633333	     -2.49832655	      0.82964262	      5.45153473	     -0.79323070	      1.01429475	      0.32228797	     21.95276225	      0.17811347	     -7.70418270	      2.95139168	     -0.73995243	     -3.31956106	      6.88484332	    -10.28305408	      4.54384754	      8.15528948	    -11.30780243	     13.09665730	     -7.41495598	     -4.47191694	     -5.28410245	     -4.16395552	     -4.06952750
      0.50050000	     -2.49074715	      0.73127499	      5.48441361	     -0.78733993	      1.01372710	      0.32241519	     22.00616477	      0.33890155	     -7.44267596	      2.47412259	     -0.99759967	     -3.74916750	      6.97626448	    -10.24687311	      4.42792772	      8.01487159	    -12.10402127	     13.23638307	     -7.18404604	     -4.40258497	     -5.23889844	     -4.01508508	     -4.04313395
      0.50466667	     -2.47084066	      0.64925642	      5.51520001	     -0.78144683	      1.01320863	      0.32255984	     22.05402424	      0.48367262	     -7.15346969	      1.93496390	     -1.32508096	     -4.27064224	      7.12332594	    -10.19770107	      4.32603567	      7.83184357	    -12.95205743	     13.33658771	     -6.91668076	     -4.28104793	     -5.20701216	     -3.90678671	     -4.01738494
      0.50883333	     -2.44762899	      0.51665000	      5.55189409	     -0.77546951	      1.01273558	      0.32265486	     22.09080978	      0.67467486	     -6.87225578	      1.36489280	     -1.67996863	     -4.78750217	      7.24417474	    -10.13638290	      4.17494673	      7.69164534	    -13.82694567	     13.42425374	     -6.72090188	     -4.16643073	     -5.14863392	     -3.67842998	     -4.00061214
      0.51300000	     -2.44686582	      0.41745316	      5.57334002	     -0.76950622	      1.01224124	      0.32279611	     22.16704633	      0.83458089	     -6.54826259	      0.73242444	     -2.09155751	     -5.41015982	      7.38001970	    -10.01678684	      4.05980408	      7.48376700	    -14.77113603	     13.46429023	     -6.47213241	     -4.02379542	     -5.07391292	     -3.53194320	     -3.98235434
      0.51716667	     -2.37830121	      0.28840078	      5.60918192	     -0.76348649	      1.01189335	      0.32292653	     22.14997107	      1.02903465	     -6.21658352	      0.11152652	     -2.59239276	     -6.11228031	      7.54283676	     -9.94753415	      3.89649708	      7.24791426	    -15.75037850	     13.48405211	     -6.17097318	     -3.83066129	     -5.08286648	     -3.33307604	     -3.95741615
      0.52133333	     -2.35606975	      0.17996509	      5.63698894	     -0.75747726	      1.01149462	      0.32307024	     22.20334179	      1.19749805	     -5.88308698	     -0.57756225	     -3.07831841	     -6.79779116	      7.70586778	     -9.80108792	      3.76330225	      7.01744070	    -16.78558689	     13.44005943	     -5.92149711	     -3.61492348	     -5.02638258	     -3.16839515	     -3.94078729
      0.52550000	     -2.26190709	      0.06808715	      5.67256644	     -0.75144330	      1.01125162	      0.32323652	     22.16395731	      1.37874745	     -5.53778304	     -1.25411048	     -3.63717234	     -7.59656623	      7.94582992	     -9.70785424	      3.60652240	      6.74654138	    -17.85535642	     13.41543355	     -5.58415777	     -3.25421919	     -5.07518875	     -3.01667904	     -3.91227202
      0.52966667	     -2.21451095	     -0.05675540	      5.70574246	     -0.74536575	      1.01097549	      0.32339988	     22.18118147	      1.56683936	     -5.21790302	     -1.96390192	     -4.19158068	     -8.33149552	      8.16011453	     -9.54031520	      3.43959483	      6.46737039	    -18.96525235	     13.28051915	     -5.30728015	     -2.87974874	     -5.03328056	     -2.82699051	     -3.89687264
      0.53383333	     -2.10131099	     -0.19822462	      5.73717401	     -0.73923735	      1.01083639	      0.32356947	     22.11910949	      1.77739373	     -4.93486285	     -2.66795473	     -4.78443857	     -9.03501731	     10.23272245	     -9.43259746	      3.23830004	      6.15904687	    -20.07107454	     12.93600493	     -5.10947363	      1.26391928	     -5.07262233	     -2.59577334	     -3.86140420
      0.53800000	     -2.06244708	     -0.31684686	      5.77477299	     -0.73314336	      1.01062539	      0.32377002	     22.15154325	      1.95580440	     -4.64615773	     -3.42019070	     -5.30271664	     -9.71066585	     10.21573642	     -9.19789888	      3.06240683	      5.83960565	    -21.27588863	     12.68733662	     -4.81655658	      1.34259561	     -5.02420594	     -2.42426036	     -3.86661009
      0.54216667	     -1.97210594	     -0.44871593	      5.80768439	     -0.72701313	      1.01053907	      0.32400208	     22.11318479	      2.15823821	     -4.34584264	     -4.15082341	     -5.83420820	    -10.41800675	     10.19784649	     -9.00065382	      2.85370192	      5.47149347	    -22.48935995	     12.35983959	     -4.49999689	      1.49430078	     -5.03489142	     -2.22928161	     -3.84368543
